<mxfile host="app.diagrams.net" modified="2023-12-23T23:48:35.469Z" agent="Mozilla/5.0 (Windows NT 10.0; Win64; x64) AppleWebKit/537.36 (KHTML, like Gecko) Chrome/118.0.0.0 YaBrowser/23.11.0.0 Safari/537.36" version="21.8.2" etag="KpeBAq-rn-T2oMO_VPto" type="github">
  <diagram name="Страница — 1" id="k6ApmL-SxIbJpGn0BswV">
    <mxGraphModel>
      <root>
        <mxCell id="0" />
        <mxCell id="1" parent="0" />
      </root>
    </mxGraphModel>
  </diagram>
</mxfile>
